<svg xmlns="http://www.w3.org/2000/svg" xmlns:xlink="http://www.w3.org/1999/xlink" width="2000" zoomAndPan="magnify" viewBox="0 0 1500 1499.999933" height="2000" preserveAspectRatio="xMidYMid meet" version="1.0"><path fill="#ffffff" d="M 563.480469 386.777344 L 563.480469 428.007812 L 492.800781 428.007812 L 492.800781 488.871094 L 420.160156 488.871094 L 420.160156 783.375 L 492.800781 783.375 L 492.800781 854.054688 L 551.703125 854.054688 L 551.703125 924.734375 L 987.5625 924.734375 L 987.5625 854.054688 L 1071.988281 854.054688 L 1071.988281 428.007812 L 987.5625 428.007812 L 987.5625 345.550781 L 563.480469 345.550781 Z M 975.785156 677.355469 L 975.785156 842.273438 L 704.84375 842.273438 L 704.84375 759.8125 L 645.941406 759.8125 L 645.941406 583.113281 L 716.625 583.113281 L 716.625 512.433594 L 975.785156 512.433594 Z M 975.785156 677.355469 " fill-opacity="1" fill-rule="nonzero"/><path fill="#ffffff" d="M 775.523438 642.015625 L 775.523438 724.472656 L 916.882812 724.472656 L 916.882812 559.554688 L 775.523438 559.554688 Z M 775.523438 642.015625 " fill-opacity="1" fill-rule="nonzero"/><path fill="#ffffff" d="M 420.160156 984.617188 L 420.160156 1056.277344 L 349.476562 1056.277344 L 349.476562 983.636719 L 278.796875 983.636719 L 278.796875 1056.277344 L 349.476562 1056.277344 L 349.476562 1126.960938 L 420.160156 1126.960938 L 420.160156 1056.277344 L 516.363281 1056.277344 L 516.363281 912.953125 L 420.160156 912.953125 Z M 420.160156 984.617188 " fill-opacity="1" fill-rule="nonzero"/><path fill="#ffffff" d="M 563.480469 1043.515625 L 563.480469 1115.179688 L 481.023438 1115.179688 L 481.023438 1197.640625 L 563.480469 1197.640625 L 563.480469 1115.179688 L 657.722656 1115.179688 L 657.722656 971.855469 L 563.480469 971.855469 Z M 563.480469 1043.515625 " fill-opacity="1" fill-rule="nonzero"/><path fill="#ffffff" d="M 693.0625 1043.515625 L 693.0625 1115.179688 L 787.304688 1115.179688 L 787.304688 971.855469 L 693.0625 971.855469 Z M 693.0625 1043.515625 " fill-opacity="1" fill-rule="nonzero"/><path fill="#ffffff" d="M 822.644531 1043.515625 L 822.644531 1115.179688 L 916.882812 1115.179688 L 916.882812 1197.640625 L 999.34375 1197.640625 L 999.34375 1115.179688 L 916.882812 1115.179688 L 916.882812 971.855469 L 822.644531 971.855469 Z M 822.644531 1043.515625 " fill-opacity="1" fill-rule="nonzero"/><path fill="#ffffff" d="M 975.785156 1014.066406 L 975.785156 1056.277344 L 1060.207031 1056.277344 L 1060.207031 1126.960938 L 1178.007812 1126.960938 L 1178.007812 1056.277344 L 1260.46875 1056.277344 L 1260.46875 971.855469 L 1178.007812 971.855469 L 1178.007812 1056.277344 L 1060.207031 1056.277344 L 1060.207031 971.855469 L 975.785156 971.855469 Z M 975.785156 1014.066406 " fill-opacity="1" fill-rule="nonzero"/></svg>