<svg xmlns="http://www.w3.org/2000/svg" xmlns:xlink="http://www.w3.org/1999/xlink" width="500" zoomAndPan="magnify" viewBox="0 0 375 374.999991" height="500" preserveAspectRatio="xMidYMid meet" version="1.0"><defs><g/><clipPath id="fe343987b9"><rect x="0" width="375" y="0" height="126"/></clipPath></defs><g transform="matrix(1, 0, 0, 1, 0, 124)"><g clip-path="url(#fe343987b9)"><g fill="#ffffff" fill-opacity="1"><g transform="translate(0.0000045, 93.260499)"><g><path d="M 46.875 -5.203125 L 46.875 0 L 15.625 0 L 15.625 -5.203125 L 26.046875 -5.203125 L 26.046875 -67.703125 L 10.421875 -67.703125 L 10.421875 -57.28125 L 5.203125 -57.28125 L 5.203125 -52.078125 L 0 -52.078125 L 0 -72.90625 L 67.703125 -72.90625 L 67.703125 -52.078125 L 57.28125 -52.078125 L 57.28125 -62.5 L 52.078125 -62.5 L 52.078125 -67.703125 L 36.453125 -67.703125 L 36.453125 -5.203125 Z M 46.875 -5.203125 "/></g></g></g><g fill="#ffffff" fill-opacity="1"><g transform="translate(67.705172, 93.260499)"><g><path d="M 15.625 -36.453125 L 20.828125 -36.453125 L 20.828125 -5.203125 L 26.046875 -5.203125 L 26.046875 0 L 5.203125 0 L 5.203125 -5.203125 L 10.421875 -5.203125 L 10.421875 -67.703125 L 5.203125 -67.703125 L 5.203125 -72.90625 L 20.828125 -72.90625 L 20.828125 -41.65625 L 15.625 -41.65625 Z M 41.65625 -5.203125 L 41.65625 -41.65625 L 26.046875 -41.65625 L 26.046875 -46.875 L 31.25 -46.875 L 31.25 -52.078125 L 41.65625 -52.078125 L 41.65625 -46.875 L 52.078125 -46.875 L 52.078125 -5.203125 L 62.5 -5.203125 L 62.5 0 L 36.453125 0 L 36.453125 -5.203125 Z M 20.828125 -41.65625 L 26.046875 -41.65625 L 26.046875 -36.453125 L 20.828125 -36.453125 Z M 20.828125 -41.65625 "/></g></g></g><g fill="#ffffff" fill-opacity="1"><g transform="translate(130.202243, 93.260499)"><g><path d="M 46.875 -26.046875 L 10.421875 -26.046875 L 10.421875 -20.828125 L 15.625 -20.828125 L 15.625 -10.421875 L 20.828125 -10.421875 L 20.828125 -5.203125 L 36.453125 -5.203125 L 36.453125 0 L 10.421875 0 L 10.421875 -5.203125 L 5.203125 -5.203125 L 5.203125 -15.625 L 0 -15.625 L 0 -31.25 L 5.203125 -31.25 L 5.203125 -41.65625 L 10.421875 -41.65625 L 10.421875 -46.875 L 15.625 -46.875 L 15.625 -41.65625 L 10.421875 -41.65625 L 10.421875 -31.25 L 36.453125 -31.25 L 36.453125 -41.65625 L 31.25 -41.65625 L 31.25 -46.875 L 20.828125 -46.875 L 20.828125 -52.078125 L 31.25 -52.078125 L 31.25 -46.875 L 36.453125 -46.875 L 36.453125 -41.65625 L 41.65625 -41.65625 L 41.65625 -31.25 L 46.875 -31.25 Z M 41.65625 -5.203125 L 36.453125 -5.203125 L 36.453125 -10.421875 L 41.65625 -10.421875 Z M 41.65625 -5.203125 "/></g></g></g><g fill="#ffffff" fill-opacity="1"><g transform="translate(177.075053, 93.260499)"><g><path d="M 52.078125 -67.703125 L 20.828125 -67.703125 L 20.828125 -5.203125 L 31.25 -5.203125 L 31.25 0 L 0 0 L 0 -5.203125 L 10.421875 -5.203125 L 10.421875 -67.703125 L 0 -67.703125 L 0 -72.90625 L 62.5 -72.90625 L 62.5 -46.875 L 57.28125 -46.875 L 57.28125 -62.5 L 52.078125 -62.5 Z M 41.65625 -20.828125 L 41.65625 -36.453125 L 36.453125 -36.453125 L 36.453125 -41.65625 L 41.65625 -41.65625 L 41.65625 -46.875 L 46.875 -46.875 L 46.875 -20.828125 Z M 41.65625 -20.828125 "/></g></g></g><g fill="#ffffff" fill-opacity="1"><g transform="translate(234.364028, 93.260499)"><g><path d="M 41.65625 -5.203125 L 41.65625 0 L 15.625 0 L 15.625 -5.203125 L 5.203125 -5.203125 L 5.203125 -20.828125 L 0 -20.828125 L 0 -26.046875 L 5.203125 -26.046875 L 5.203125 -41.65625 L 10.421875 -41.65625 L 10.421875 -46.875 L 20.828125 -46.875 L 20.828125 -52.078125 L 31.25 -52.078125 L 31.25 -46.875 L 41.65625 -46.875 L 41.65625 -41.65625 L 46.875 -41.65625 L 46.875 -36.453125 L 52.078125 -36.453125 L 52.078125 -15.625 L 46.875 -15.625 L 46.875 -5.203125 Z M 15.625 -5.203125 L 36.453125 -5.203125 L 36.453125 -15.625 L 41.65625 -15.625 L 41.65625 -26.046875 L 36.453125 -26.046875 L 36.453125 -41.65625 L 31.25 -41.65625 L 31.25 -46.875 L 20.828125 -46.875 L 20.828125 -41.65625 L 15.625 -41.65625 L 15.625 -36.453125 L 10.421875 -36.453125 L 10.421875 -15.625 L 15.625 -15.625 Z M 15.625 -5.203125 "/></g></g><g transform="translate(286.444934, 93.260499)"><g><path d="M 31.25 -5.203125 L 31.25 0 L 0 0 L 0 -5.203125 L 10.421875 -5.203125 L 10.421875 -67.703125 L 5.203125 -67.703125 L 5.203125 -72.90625 L 20.828125 -72.90625 L 20.828125 -5.203125 Z M 31.25 -5.203125 "/></g></g><g transform="translate(317.693478, 93.260499)"><g><path d="M 31.25 -10.421875 L 36.453125 -10.421875 L 36.453125 -67.703125 L 31.25 -67.703125 L 31.25 -72.90625 L 46.875 -72.90625 L 46.875 -5.203125 L 52.078125 -5.203125 L 52.078125 0 L 36.453125 0 L 36.453125 -5.203125 L 31.25 -5.203125 L 31.25 0 L 10.421875 0 L 10.421875 -5.203125 L 5.203125 -5.203125 L 5.203125 -15.625 L 0 -15.625 L 0 -26.046875 L 5.203125 -26.046875 L 5.203125 -41.65625 L 10.421875 -41.65625 L 10.421875 -46.875 L 20.828125 -46.875 L 20.828125 -52.078125 L 31.25 -52.078125 L 31.25 -46.875 L 20.828125 -46.875 L 20.828125 -41.65625 L 15.625 -41.65625 L 15.625 -36.453125 L 10.421875 -36.453125 L 10.421875 -15.625 L 15.625 -15.625 L 15.625 -10.421875 L 20.828125 -10.421875 L 20.828125 -5.203125 L 31.25 -5.203125 Z M 31.25 -10.421875 "/></g></g></g></g></g></svg>