<svg width="500" height="500" viewBox="0 0 500 500" fill="none" xmlns="http://www.w3.org/2000/svg">
<path d="M-4.4313e-09 160L50 180L100 200L100 260L100 320L100 380L100 440L150 460L150 400L150 340L150 280L150 220L200 240L200 300L200 360L200 420L200 480L250 500L300 480L300 420L300 360L350 340L400 320L400 260L350 280L300 300L300 240L350 220L400 200L450 180L500 160L500 100L450 120L400 140L350 160L300 180L250 200L200 180L150 160L100 140L50 120L-2.76956e-09 100L-4.4313e-09 160Z" fill="white"/>
<path d="M500 220L450 240L450 300L450 360L400 380L350 400L350 460L400 440L450 420L500 400L500 340L500 280L500 220Z" fill="white"/>
<path d="M50 300L50 240L-6.09304e-09 220L-7.75477e-09 280L-9.41651e-09 340L-1.10782e-08 400L50 420L50 360L50 300Z" fill="white"/>
<path d="M150 120L200 140L250 160L300 140L350 120L300 100L250 120L200 100L150 120Z" fill="white"/>
<path d="M300 20L250 6.92391e-09L200 20L150 40L100 60L50 80L100 100L150 80L200 60L250 80L300 60L350 80L400 100L450 80L400 60L350 40L300 20Z" fill="white"/>
</svg>
