<svg xmlns="http://www.w3.org/2000/svg" xmlns:xlink="http://www.w3.org/1999/xlink" width="2000" zoomAndPan="magnify" viewBox="0 0 1500 1499.999933" height="2000" preserveAspectRatio="xMidYMid meet" version="1.0"><defs><filter x="0%" y="0%" width="100%" height="100%" id="e4396aa84c"><feColorMatrix values="0 0 0 0 1 0 0 0 0 1 0 0 0 0 1 0 0 0 1 0" color-interpolation-filters="sRGB"/></filter><g/><clipPath id="276502ee25"><rect x="0" width="666" y="0" height="769"/></clipPath><mask id="07bf54dc8d"><g filter="url(#e4396aa84c)"><rect x="-150" width="1800" fill="#000000" y="-149.999993" height="1799.99992" fill-opacity="0.5"/></g></mask><clipPath id="4324c638e7"><path d="M 0.523438 1.042969 L 655.160156 1.042969 L 655.160156 76.160156 L 0.523438 76.160156 Z M 0.523438 1.042969 " clip-rule="nonzero"/></clipPath><clipPath id="ab7310c46b"><path d="M 38.082031 1.042969 L 617.53125 1.042969 C 627.492188 1.042969 637.046875 5 644.089844 12.042969 C 651.132812 19.085938 655.089844 28.640625 655.089844 38.601562 C 655.089844 48.5625 651.132812 58.117188 644.089844 65.160156 C 637.046875 72.203125 627.492188 76.160156 617.53125 76.160156 L 38.082031 76.160156 C 28.121094 76.160156 18.566406 72.203125 11.523438 65.160156 C 4.480469 58.117188 0.523438 48.5625 0.523438 38.601562 C 0.523438 28.640625 4.480469 19.085938 11.523438 12.042969 C 18.566406 5 28.121094 1.042969 38.082031 1.042969 Z M 38.082031 1.042969 " clip-rule="nonzero"/></clipPath><clipPath id="3fc61c9a7e"><path d="M 0.523438 0.0429688 L 655.160156 0.0429688 L 655.160156 75.160156 L 0.523438 75.160156 Z M 0.523438 0.0429688 " clip-rule="nonzero"/></clipPath><clipPath id="2994f0d418"><path d="M 38.082031 0.0429688 L 617.53125 0.0429688 C 627.492188 0.0429688 637.046875 4 644.089844 11.042969 C 651.132812 18.085938 655.089844 27.640625 655.089844 37.601562 C 655.089844 47.5625 651.132812 57.117188 644.089844 64.160156 C 637.046875 71.203125 627.492188 75.160156 617.53125 75.160156 L 38.082031 75.160156 C 28.121094 75.160156 18.566406 71.203125 11.523438 64.160156 C 4.480469 57.117188 0.523438 47.5625 0.523438 37.601562 C 0.523438 27.640625 4.480469 18.085938 11.523438 11.042969 C 18.566406 4 28.121094 0.0429688 38.082031 0.0429688 Z M 38.082031 0.0429688 " clip-rule="nonzero"/></clipPath><clipPath id="a2c8f7a0c3"><rect x="0" width="656" y="0" height="76"/></clipPath><clipPath id="68cb888b49"><rect x="0" width="656" y="0" height="77"/></clipPath><clipPath id="8a9431b589"><path d="M 724.570312 924.359375 L 1373.261719 924.359375 L 1373.261719 992.839844 L 724.570312 992.839844 Z M 724.570312 924.359375 " clip-rule="nonzero"/></clipPath><clipPath id="d033800aa4"><path d="M 758.8125 924.359375 L 1338.800781 924.359375 C 1357.710938 924.359375 1373.042969 939.691406 1373.042969 958.601562 C 1373.042969 977.511719 1357.710938 992.839844 1338.800781 992.839844 L 758.8125 992.839844 C 739.902344 992.839844 724.570312 977.511719 724.570312 958.601562 C 724.570312 939.691406 739.902344 924.359375 758.8125 924.359375 Z M 758.8125 924.359375 " clip-rule="nonzero"/></clipPath><clipPath id="05699ae1ae"><path d="M 0.570312 0.359375 L 649 0.359375 L 649 68.839844 L 0.570312 68.839844 Z M 0.570312 0.359375 " clip-rule="nonzero"/></clipPath><clipPath id="8078882d34"><path d="M 34.8125 0.359375 L 614.800781 0.359375 C 633.710938 0.359375 649.042969 15.691406 649.042969 34.601562 C 649.042969 53.511719 633.710938 68.839844 614.800781 68.839844 L 34.8125 68.839844 C 15.902344 68.839844 0.570312 53.511719 0.570312 34.601562 C 0.570312 15.691406 15.902344 0.359375 34.8125 0.359375 Z M 34.8125 0.359375 " clip-rule="nonzero"/></clipPath><clipPath id="b7ad8d8a7a"><rect x="0" width="650" y="0" height="69"/></clipPath><clipPath id="36512da905"><rect x="0" width="609" y="0" height="906"/></clipPath></defs><g transform="matrix(1, 0, 0, 1, 721, 313)"><g clip-path="url(#276502ee25)"><g fill="#ffffff" fill-opacity="1"><g transform="translate(0.522471, 585.183388)"><g><path d="M 191.21875 -202.765625 L 191.21875 -125.765625 L 94.328125 -125.765625 L 94.328125 0 L 5.78125 0 L 5.78125 -449.171875 L 191.21875 -449.171875 L 191.21875 -214.3125 L 105.875 -214.3125 L 105.875 -372.8125 L 94.328125 -372.8125 L 94.328125 -202.765625 Z M 191.21875 -202.765625 "/></g></g></g><g fill="#ffffff" fill-opacity="1"><g transform="translate(196.234305, 585.183388)"><g><path d="M 178.390625 -395.90625 L 178.390625 -19.890625 C 178.390625 -12.191406 177 -6.953125 174.21875 -4.171875 C 171.4375 -1.390625 166.195312 0 158.5 0 L 25.03125 0 C 17.320312 0 12.078125 -1.390625 9.296875 -4.171875 C 6.523438 -6.953125 5.140625 -12.191406 5.140625 -19.890625 L 5.140625 -395.90625 C 5.140625 -403.613281 6.523438 -408.851562 9.296875 -411.625 C 12.078125 -414.40625 17.320312 -415.796875 25.03125 -415.796875 L 158.5 -415.796875 C 166.195312 -415.796875 171.4375 -414.40625 174.21875 -411.625 C 177 -408.851562 178.390625 -403.613281 178.390625 -395.90625 Z M 86.625 -345.21875 L 86.625 -70.578125 L 96.890625 -70.578125 L 96.890625 -345.21875 Z M 86.625 -345.21875 "/></g></g></g><g fill="#ffffff" fill-opacity="1"><g transform="translate(379.754132, 585.183388)"><g><path d="M 5.140625 0 L 5.140625 -449.171875 L 86.625 -449.171875 L 86.625 0 Z M 5.140625 0 "/></g></g></g><g fill="#ffffff" fill-opacity="1"><g transform="translate(471.514045, 585.183388)"><g><path d="M 96.890625 -345.21875 L 86.625 -345.21875 L 86.625 -70.578125 L 96.890625 -70.578125 Z M 178.390625 -449.171875 L 178.390625 0 L 25.03125 0 C 17.320312 0 12.078125 -1.390625 9.296875 -4.171875 C 6.523438 -6.953125 5.140625 -12.191406 5.140625 -19.890625 L 5.140625 -395.90625 C 5.140625 -403.613281 6.523438 -408.851562 9.296875 -411.625 C 12.078125 -414.40625 17.320312 -415.796875 25.03125 -415.796875 L 96.890625 -415.796875 L 96.890625 -449.171875 Z M 178.390625 -449.171875 "/></g></g></g></g></g><g mask="url(#07bf54dc8d)"><g transform="matrix(1, 0, 0, 1, 721, 920)"><g clip-path="url(#68cb888b49)"><g clip-path="url(#4324c638e7)"><g clip-path="url(#ab7310c46b)"><g transform="matrix(1, 0, 0, 1, 0.000000000000113687, 1)"><g clip-path="url(#a2c8f7a0c3)"><g clip-path="url(#3fc61c9a7e)"><g clip-path="url(#2994f0d418)"><path fill="#ffffff" d="M 0.523438 0.0429688 L 655.160156 0.0429688 L 655.160156 75.160156 L 0.523438 75.160156 Z M 0.523438 0.0429688 " fill-opacity="1" fill-rule="nonzero"/></g></g></g></g></g></g></g></g></g><g clip-path="url(#8a9431b589)"><g clip-path="url(#d033800aa4)"><g transform="matrix(1, 0, 0, 1, 724, 924)"><g clip-path="url(#b7ad8d8a7a)"><g clip-path="url(#05699ae1ae)"><g clip-path="url(#8078882d34)"><path fill="#ffffff" d="M 0.570312 0.359375 L 648.992188 0.359375 L 648.992188 68.839844 L 0.570312 68.839844 Z M 0.570312 0.359375 " fill-opacity="1" fill-rule="nonzero"/></g></g></g></g></g></g><g transform="matrix(1, 0, 0, 1, 123, 290)"><g clip-path="url(#36512da905)"><g fill="#ffffff" fill-opacity="1"><g transform="translate(0.908533, 689.59179)"><g><path d="M 136.140625 -439.40625 L 136.140625 0 L 31.765625 0 L 31.765625 -439.40625 L 1.515625 -439.40625 L 1.515625 -529.40625 L 166.390625 -529.40625 L 166.390625 -439.40625 Z M 136.140625 -439.40625 "/></g></g></g><g fill="#ffffff" fill-opacity="1"><g transform="translate(168.807559, 689.59179)"><g><path d="M 102.09375 0 L 6.046875 0 L 6.046875 -529.40625 L 102.09375 -529.40625 L 102.09375 -490.078125 L 186.8125 -490.078125 C 195.882812 -490.078125 202.054688 -488.4375 205.328125 -485.15625 C 208.609375 -481.882812 210.25 -475.710938 210.25 -466.640625 L 210.25 0 L 114.203125 0 L 114.203125 -406.890625 L 102.09375 -406.890625 Z M 102.09375 0 "/></g></g></g><g fill="#ffffff" fill-opacity="1"><g transform="translate(385.109935, 689.59179)"><g><path d="M 207.21875 -466.640625 L 207.21875 -203.4375 L 102.09375 -203.4375 L 102.09375 -83.1875 L 114.203125 -83.1875 L 114.203125 -191.34375 L 207.21875 -191.34375 L 207.21875 -23.4375 C 207.21875 -14.363281 205.578125 -8.1875 202.296875 -4.90625 C 199.023438 -1.632812 192.851562 0 183.78125 0 L 29.5 0 C 20.414062 0 14.234375 -1.632812 10.953125 -4.90625 C 7.679688 -8.1875 6.046875 -14.363281 6.046875 -23.4375 L 6.046875 -466.640625 C 6.046875 -475.710938 7.679688 -481.882812 10.953125 -485.15625 C 14.234375 -488.4375 20.414062 -490.078125 29.5 -490.078125 L 183.78125 -490.078125 C 192.851562 -490.078125 199.023438 -488.4375 202.296875 -485.15625 C 205.578125 -481.882812 207.21875 -475.710938 207.21875 -466.640625 Z M 102.09375 -406.890625 L 102.09375 -286.640625 L 114.203125 -286.640625 L 114.203125 -406.890625 Z M 102.09375 -406.890625 "/></g></g></g></g></g></svg>